Coordinates
version=1
nRows=9
nColumns=24
inDegrees=yes

Units are S.I. units (second, meters, Newtons, ...)
Angles are in degrees.

endheader
time	pelvis_tilt	pelvis_list	pelvis_rotation	pelvis_tx	pelvis_ty	pelvis_tz	hip_flexion_r	hip_adduction_r	hip_rotation_r	knee_angle_r	ankle_angle_r	subtalar_angle_r	mtp_angle_r	hip_flexion_l	hip_adduction_l	hip_rotation_l	knee_angle_l	ankle_angle_l	subtalar_angle_l	mtp_angle_l	lumbar_extension	lumbar_bending	lumbar_rotation
      2.29000000	     -7.72982014	     -0.76080060	     -0.73646282	      0.63110933	      1.26492976	     -0.90045692	     -1.54013723	      4.79189969	     -1.09931583	    -34.38067034	     -9.94057647	     10.04559689	     18.22162371	     26.57680340	      7.15248480	      9.21232533	    -13.13764545	    -11.54100839	    -23.03410336	      1.09060056	      2.69005958	      0.14831082	      1.00224051
      2.29500000	     -7.86180033	     -0.55533247	     -0.03114201	      0.63829079	      1.26564149	     -0.90149676	     -0.80866972	      4.15323069	     -2.79415151	    -35.71830053	    -11.20859601	     10.35818142	     16.93296529	     26.04705448	      7.69423746	      9.81902001	    -12.86231249	    -11.36611646	    -22.98659546	      0.85294772	      3.05236250	     -0.29865104	      0.32733940
      2.30000000	     -7.93736879	     -0.41671796	      0.67108526	      0.64535546	      1.26644184	     -0.90248785	     -0.16602638	      3.60041926	     -4.37166704	    -36.94871554	    -12.37180474	     10.08440716	     16.73548196	     25.45963004	      8.14048931	     10.33621144	    -12.59786584	    -11.00355256	    -22.70839332	      0.87659120	      3.32019378	     -0.67206794	     -0.44123929
      2.30500000	     -8.03673863	     -0.30688397	      1.36296438	      0.65231181	      1.26720727	     -0.90352937	      0.51451053	      3.05078794	     -5.88760926	    -38.17322408	    -13.34275444	      9.83663692	     16.39509351	     24.88077968	      8.54723166	     10.88657134	    -12.30196182	    -10.65739277	    -22.47159785	      0.87094607	      3.59350076	     -1.00631937	     -1.19287945
      2.31000000	     -8.14077506	     -0.23214979	      2.04138975	      0.65916671	      1.26797478	     -0.90458918	      1.20036797	      2.52800583	     -7.32352432	    -39.35577658	    -14.15002245	      9.50390910	     15.88846182	     24.29782200	      8.90263364	     11.42778333	    -11.98672130	    -10.31189855	    -22.25690312	      0.84538181	      3.85872932	     -1.29398653	     -1.93281614
      2.31500000	     -8.25173410	     -0.17732513	      2.67820983	      0.66586030	      1.26873533	     -0.90562577	      1.91924133	      2.02167118	     -8.64181928	    -40.53611788	    -14.83769896	      9.21169062	     14.37796743	     23.71851074	      9.20785865	     11.93974286	    -11.65066611	    -10.02824935	    -22.01235559	      0.70964933	      4.11156035	     -1.55774779	     -2.57629537
      2.32000000	     -8.31600715	     -0.15825883	      3.32299525	      0.67241278	      1.26954016	     -0.90666810	      2.58181258	      1.55662459	     -9.90778078	    -41.63359117	    -15.19638928	      8.66536045	     14.23050913	     23.09296164	      9.46369733	     12.44493902	    -11.30751558	     -9.73389738	    -21.74028663	      0.73732754	      4.28278283	     -1.77399189	     -3.29836959
      2.32500000	     -8.40755224	     -0.21227359	      3.97740165	      0.67888000	      1.27031939	     -0.90777583	      3.25903691	      1.16792564	    -11.12421282	    -42.62944684	    -15.42863699	      8.09131511	     13.92442819	     22.50701502	      9.64598284	     12.98569682	    -10.97528983	     -9.35177286	    -21.51119941	      0.73721208	      4.47821485	     -1.89680227	     -4.07097786
      2.33000000	     -8.51379211	     -0.28621416	      4.60152728	      0.68516497	      1.27106651	     -0.90885884	      3.98530741	      0.79866435	    -12.25601597	    -43.61268037	    -15.50257996	      7.55202857	     12.94605460	     21.96431717	      9.78614005	     13.49735733	    -10.66894362	     -9.00385029	    -21.17934119	      0.62967232	      4.67035557	     -1.99683338	     -4.77334534
